<svg xmlns="http://www.w3.org/2000/svg" width="547.842" height="547.842" viewBox="0 0 547.842 547.842"><path fill="#63541e" d="M506.367 293.097H462.53c-11.09 0-20.042 8.874-20.425 19.813-9.104 84.61-80.707 150.476-167.84 150.476-93.253 0-168.76-75.43-168.76-168.53 0-92.257 76.042-167.228 168.072-168.528v27.387c0 12.47 8.874 18.054 19.737 12.47L433.998 94.2c10.863-5.586 10.863-14.613 0-20.197L293.314 2.168c-10.863-5.584-19.737 0-19.737 12.393v27.617c-138.695 1.3-252.45 114.062-252.45 252.833 0 139.612 113.296 252.832 253.14 252.832 133.722 0 243.27-103.504 252.448-234.778.076-11.016-9.18-19.967-20.348-19.967z"/></svg>